HIERARCHY
ROOT hip
{
  OFFSET 0 0 0
  CHANNELS 6 Xposition Yposition Zposition Zrotation Yrotation Xrotation
  JOINT abdomen
  {
    OFFSET 0 20.6881 -0.73152
    CHANNELS 3 Zrotation Xrotation Yrotation
    JOINT chest
    {
      OFFSET 0 11.7043 -0.48768
      CHANNELS 3 Zrotation Xrotation Yrotation
      JOINT neck
      {
        OFFSET 0 22.1894 -2.19456
        CHANNELS 3 Zrotation Xrotation Yrotation
        JOINT head
        {
          OFFSET -0.24384 7.07133 1.2192
          CHANNELS 3 Zrotation Xrotation Yrotation
          JOINT leftEye
          {
            OFFSET 4.14528 8.04674 8.04672
            CHANNELS 3 Zrotation Xrotation Yrotation
            End Site
            {
              OFFSET 1 0 0
            }
          }
          JOINT rightEye
          {
            OFFSET -3.6576 8.04674 8.04672
            CHANNELS 3 Zrotation Xrotation Yrotation
            End Site
            {
              OFFSET 1 0 0
            }
          }
        }
      }
      JOINT rCollar
      {
        OFFSET -2.68224 19.2634 -4.8768
        CHANNELS 3 Zrotation Xrotation Yrotation
        JOINT rShldr
        {
          OFFSET -8.77824 -1.95073 1.46304
          CHANNELS 3 Zrotation Xrotation Yrotation
          JOINT rForeArm
          {
            OFFSET -28.1742 -1.7115 0.48768
            CHANNELS 3 Zrotation Xrotation Yrotation
            JOINT rHand
            {
              OFFSET -22.5879 0.773209 7.07136
              CHANNELS 3 Zrotation Xrotation Yrotation
              JOINT rThumb1
              {
                OFFSET -1.2192 -0.487915 3.41376
                CHANNELS 3 Zrotation Xrotation Yrotation
                JOINT rThumb2
                {
                  OFFSET -3.37035 -0.52449 3.41376
                  CHANNELS 3 Zrotation Xrotation Yrotation
                  End Site
                  {
                    OFFSET -1.78271 -1.18214 1.43049
                  }
                }
              }
              JOINT rIndex1
              {
                OFFSET -7.75947 0.938293 5.60832
                CHANNELS 3 Zrotation Xrotation Yrotation
                JOINT rIndex2
                {
                  OFFSET -2.54057 -0.884171 1.56538
                  CHANNELS 3 Zrotation Xrotation Yrotation
                  End Site
                  {
                    OFFSET -1.62519 -0.234802 1.16502
                  }
                }
              }
              JOINT rMid1
              {
                OFFSET -8.24714 1.18213 3.41376
                CHANNELS 3 Zrotation Xrotation Yrotation
                JOINT rMid2
                {
                  OFFSET -3.10165 -0.590103 1.0647
                  CHANNELS 3 Zrotation Xrotation Yrotation
                  End Site
                  {
                    OFFSET -2.48547 -0.328903 0.83742
                  }
                }
              }
              JOINT rRing1
              {
                OFFSET -8.82822 0.546677 1.51678
                CHANNELS 3 Zrotation Xrotation Yrotation
                JOINT rRing2
                {
                  OFFSET -2.60934 -0.819778 -0.0198488
                  CHANNELS 3 Zrotation Xrotation Yrotation
                  End Site
                  {
                    OFFSET -2.33842 -0.294052 0.168128
                  }
                }
              }
              JOINT rPinky1
              {
                OFFSET -8.27202 -0.0477905 -0.4584
                CHANNELS 3 Zrotation Xrotation Yrotation
                JOINT rPinky2
                {
                  OFFSET -1.82734 -0.647385 -0.700984
                  CHANNELS 3 Zrotation Xrotation Yrotation
                  End Site
                  {
                    OFFSET -1.69225 -0.51767 -0.607171
                  }
                }
              }
            }
          }
        }
      }
      JOINT lCollar
      {
        OFFSET 2.68224 19.2634 -4.8768
        CHANNELS 3 Zrotation Xrotation Yrotation
        JOINT lShldr
        {
          OFFSET 8.77824 -1.95073 1.46304
          CHANNELS 3 Zrotation Xrotation Yrotation
          JOINT lForeArm
          {
            OFFSET 28.1742 -1.7115 0.48768
            CHANNELS 3 Zrotation Xrotation Yrotation
            JOINT lHand
            {
              OFFSET 22.5879 0.773209 7.07136
              CHANNELS 3 Zrotation Xrotation Yrotation
              JOINT lThumb1
              {
                OFFSET 1.2192 -0.487915 3.41376
                CHANNELS 3 Zrotation Xrotation Yrotation
                JOINT lThumb2
                {
                  OFFSET 3.37035 -0.52449 3.41376
                  CHANNELS 3 Zrotation Xrotation Yrotation
                  End Site
                  {
                    OFFSET 1.78271 -1.18214 1.43049
                  }
                }
              }
              JOINT lIndex1
              {
                OFFSET 7.75947 0.938293 5.60832
                CHANNELS 3 Zrotation Xrotation Yrotation
                JOINT lIndex2
                {
                  OFFSET 2.54057 -0.884171 1.56538
                  CHANNELS 3 Zrotation Xrotation Yrotation
                  End Site
                  {
                    OFFSET 1.62519 -0.234802 1.16502
                  }
                }
              }
              JOINT lMid1
              {
                OFFSET 8.24714 1.18213 3.41376
                CHANNELS 3 Zrotation Xrotation Yrotation
                JOINT lMid2
                {
                  OFFSET 3.10165 -0.590103 1.0647
                  CHANNELS 3 Zrotation Xrotation Yrotation
                  End Site
                  {
                    OFFSET 2.48547 -0.328903 0.83742
                  }
                }
              }
              JOINT lRing1
              {
                OFFSET 8.82822 0.546677 1.51678
                CHANNELS 3 Zrotation Xrotation Yrotation
                JOINT lRing2
                {
                  OFFSET 2.60934 -0.819778 -0.0198488
                  CHANNELS 3 Zrotation Xrotation Yrotation
                  End Site
                  {
                    OFFSET 2.33842 -0.294052 0.168128
                  }
                }
              }
              JOINT lPinky1
              {
                OFFSET 8.27202 -0.0477905 -0.4584
                CHANNELS 3 Zrotation Xrotation Yrotation
                JOINT lPinky2
                {
                  OFFSET 1.82734 -0.647385 -0.700984
                  CHANNELS 3 Zrotation Xrotation Yrotation
                  End Site
                  {
                    OFFSET 1.69225 -0.51767 -0.607171
                  }
                }
              }
            }
          }
        }
      }
    }
  }
  JOINT rButtock
  {
    OFFSET -8.77824 4.35084 1.2192
    CHANNELS 3 Zrotation Xrotation Yrotation
    JOINT rThigh
    {
      OFFSET 0 -1.70687 -2.19456
      CHANNELS 3 Zrotation Xrotation Yrotation
      JOINT rShin
      {
        OFFSET 0 -36.8199 0.73152
        CHANNELS 3 Zrotation Xrotation Yrotation
        JOINT rFoot
        {
          OFFSET 0.73152 -45.1104 -5.12064
          CHANNELS 3 Zrotation Xrotation Yrotation
          End Site
          {
            OFFSET -1.1221 -3.69964 12.103
          }
        }
      }
    }
  }
  JOINT lButtock
  {
    OFFSET 8.77824 4.35084 1.2192
    CHANNELS 3 Zrotation Xrotation Yrotation
    JOINT lThigh
    {
      OFFSET 0 -1.70687 -2.19456
      CHANNELS 3 Zrotation Xrotation Yrotation
      JOINT lShin
      {
        OFFSET 0 -36.8199 0.73152
        CHANNELS 3 Zrotation Xrotation Yrotation
        JOINT lFoot
        {
          OFFSET -0.73152 -45.1104 -5.12064
          CHANNELS 3 Zrotation Xrotation Yrotation
          End Site
          {
            OFFSET 1.1221 -3.69964 12.103
          }
        }
      }
    }
  }
}
MOTION
Frames:	4
Frame Time:	0.03333
0.0 0.0 0.0 0.0 0.0 0.0 0.0 0.0 0.0 0.0 0.0 0.0 0.0 0.0 0.0 0.0 0.0 0.0 0.0 0.0 0.0 0.0 0.0 0.0 0.0 0.0 0.0 0.0 0.0 0.0 0.0 0.0 0.0 0.0 0.0 0.0 0.0 0.0 0.0 0.0 0.0 0.0 0.0 0.0 0.0 0.0 0.0 0.0 0.0 0.0 0.0 0.0 0.0 0.0 0.0 0.0 0.0 0.0 0.0 0.0 0.0 0.0 0.0 0.0 0.0 0.0 0.0 0.0 0.0 0.0 0.0 0.0 0.0 0.0 0.0 0.0 0.0 0.0 0.0 0.0 0.0 0.0 0.0 0.0 0.0 0.0 0.0 0.0 0.0 0.0 0.0 0.0 0.0 0.0 0.0 0.0 0.0 0.0 0.0 0.0 0.0 0.0 0.0 0.0 0.0 0.0 0.0 0.0 0.0 0.0 0.0 0.0 0.0 0.0 0.0 0.0 0.0 0.0 0.0 0.0 0.0 0.0 0.0 0.0 0.0 0.0 0.0 0.0 0.0 0.0 0.0 0.0
0.0059 71.2233 0.0325 -177.546644 -33.483763 -176.3672 -7.880572 1.156123 87.549354 -2.838166 -8.093205 -90.412585 1.421966 17.075062 60.666823 4.910823 -6.579987 -104.949757 -0.002016 0.0 -0.002294 -0.004146 -0.0 0.002857 -2.136989 11.154213 2.70576 51.778356 65.168853 22.023384 153.350218 48.374609 126.953854 176.597861 -0.898101 144.80163 -3.028438 2.961375 0.542251 -136.875757 -39.728701 116.987735 -159.461542 -32.040436 122.676786 -4.876192 29.802956 -0.913685 6.046003 -18.845137 -2.587816 -18.459936 42.757708 14.780846 -0.008424 -0.960679 -0.30044 -154.483137 -63.283132 -178.809158 20.114697 69.074446 13.073103 -6.844716 -18.412541 -7.939556 154.317941 3.588704 -160.256321 70.706476 38.90705 -11.744006 -157.006635 57.210481 132.511108 25.448347 70.351104 -16.88481 174.182207 -11.846231 -89.871573 41.947745 -20.140486 -5.227821 131.555336 14.394997 -110.217466 27.254066 44.453138 -13.13325 32.973765 49.941349 -26.98383 163.162551 -4.950378 -143.281296 145.114673 -0.418569 178.997587 156.581627 17.564778 -178.728155 126.146247 -27.455596 123.877343 177.964863 77.12739 138.029756 -179.978102 75.750664 -0.018659 167.27172 49.981449 161.391536 23.914041 -35.893267 -41.963616 167.449146 84.735624 111.482106 -179.994483 75.749698 -0.004478 -169.151884 59.877789 -1.596728 1.44465 36.492374 -80.075475 131.56266 -63.731169 -140.448554
0.010799999999999999 71.21889999999999 0.0536 -177.603665 -33.47507 -176.344493 -7.113641 -0.500344 135.594561 -6.139439 -4.195048 -138.691946 -15.17666 29.843739 -118.200892 -3.852235 25.336116 82.51862 -0.002224 0.0 -0.001419 -0.002224 0.0 -0.001419 -4.344954 20.043268 5.309044 -99.292148 8.936958 163.813116 0.506068 6.469651 -75.913889 167.940884 -26.186137 142.181044 -16.072053 14.687227 4.480476 -106.093533 -1.936804 95.259238 94.182493 -75.878738 44.863195 -3.371877 29.310981 3.219954 -170.81477 -38.21944 145.296438 15.465267 -35.851431 -0.558668 -0.030286 -2.175134 -0.683041 -155.883521 -12.604595 173.359417 -115.38016 -38.135714 -113.363098 -143.132676 1.8521 -139.626399 1.150511 6.384144 -1.487691 88.430671 11.67916 -166.123923 -178.666648 -17.159162 155.640784 12.331884 56.312183 -7.41386 -38.729347 -34.370607 -6.574012 -0.968049 -70.334647 44.396837 155.851882 -25.515269 -122.265581 163.741128 -22.404029 -119.419814 -9.466097 -29.708967 3.213637 5.302051 21.820448 -4.593572 145.109774 -0.740678 178.896322 149.813697 -36.972833 172.516365 -0.456007 1.201537 -0.422159 -19.748228 59.353787 -9.592716 -0.001621 -0.000926 0.00028 -7.922091 -22.819014 -21.492911 -16.369522 31.072628 68.020254 -96.129627 32.963982 18.485406 -179.955904 75.750166 -0.032222 -168.635567 59.823853 -18.695724 2.842033 35.887224 51.239438 59.395112 -38.98219 -24.535537
0.0137 71.21340000000001 0.076 -177.670069 -33.463797 -176.299864 -7.804444 1.451505 86.054176 -2.55582 -8.331447 -89.132824 -17.403119 21.28659 -65.142341 11.292571 23.624428 25.37362 -0.002958 -0.0 0.003614 -0.001078 0.0 -0.003077 -147.538159 29.440514 152.329177 118.152212 -21.352743 133.52904 -168.572412 19.199261 99.558634 166.046044 -30.776683 141.165178 -38.413032 29.155259 15.779335 -103.233985 -6.449291 87.025125 -60.927043 42.736381 49.459335 66.430454 -59.552296 22.830416 -157.105245 3.846182 141.329173 146.684035 -73.679313 114.589477 -145.078569 -2.66651 -178.290254 10.902388 5.764245 -8.289728 -90.116355 -49.672137 -88.442865 28.084545 69.52175 5.559919 159.075855 -55.229378 -172.109202 -112.360974 29.608784 128.174362 -31.960247 -19.593658 -32.221918 87.785613 81.415691 -75.1876 -12.301309 -12.269777 0.579555 24.126083 21.921203 -14.301773 -20.583698 -36.752735 5.952994 5.590701 26.740926 -6.8473 153.479985 13.247949 -138.974071 173.902074 -35.686808 -143.317847 0.029634 -2.252927 0.708512 155.959431 -14.421247 -173.566977 154.827649 47.720304 149.305255 -10.728344 26.64636 -4.316674 -179.998549 75.74838 -0.001394 167.94798 52.052422 -8.519839 -15.163357 33.829316 91.363311 -127.185601 47.751736 48.904894 0.008773 -0.001432 0.00844 6.386439 -17.431414 -143.945766 -30.953236 -25.802854 -164.369177 -125.178515 14.734182 22.472609
